<svg width="590" height="590" viewBox="0 0 590 590" fill="none" xmlns="http://www.w3.org/2000/svg">
<circle cx="295" cy="295" r="295" fill="#494949"/>
<path fill-rule="evenodd" clip-rule="evenodd" d="M313.375 195.185C308.451 188.454 299.002 186.99 292.271 191.915L285.171 197.109C284.604 197.524 284.074 197.971 283.583 198.446L282.998 198.881L282.757 199.06L282.062 199.58C276.142 204.021 268.346 210.122 258.869 217.661C245.506 228.293 228.558 241.979 208.43 258.232L208.424 258.237L208.362 258.287C203.263 262.404 197.96 266.686 192.46 271.125C189.938 273.16 187.375 275.229 184.77 277.329L181.497 279.969C179.323 281.722 177.121 283.497 174.89 285.294L170.216 289.059C165.914 292.524 161.513 296.065 157.015 299.68C148.317 306.671 140.918 312.093 134.689 316.235L173.346 254.119C173.615 253.799 173.872 253.465 174.116 253.118C174.294 252.867 174.465 252.608 174.629 252.343L179.258 244.861C183.646 237.769 181.453 228.462 174.361 224.074C167.268 219.686 157.961 221.879 153.574 228.971L148.945 236.453C148.886 236.548 148.828 236.644 148.772 236.74C148.708 236.848 148.647 236.956 148.586 237.064C148.504 237.211 148.425 237.359 148.349 237.508L94.9282 323.346L94.7049 323.76C92.2998 328.227 89.085 336.518 92.458 345.025C94.4016 349.927 98.1634 353.732 103.012 355.807C107.452 357.706 111.983 357.83 115.731 357.398C123.06 356.551 131.416 353.095 140.628 347.837C150.134 342.412 161.742 334.371 175.81 323.063C179.001 320.498 182.143 317.971 185.235 315.482C185.786 316.719 186.371 318.014 186.999 319.375C190.659 327.31 195.407 336.546 201.957 344.115C208.702 351.909 218.156 358.825 230.993 360.044C243.508 361.232 256.429 356.721 269.733 347.852C273.864 345.098 284.67 336.79 295.491 328.335C295.955 329.838 296.501 331.329 297.134 332.801C304.238 349.306 320.5 359.372 343.912 359.372H499.678L501.334 359.378C501.506 359.379 501.677 359.377 501.847 359.372H501.912V359.37C509.926 359.097 516.355 352.531 516.387 344.444C516.419 336.318 509.979 329.676 501.912 329.401V329.372H496.267L492.439 329.357C492.19 329.356 491.942 329.361 491.696 329.372H343.912C329.825 329.372 326.087 324.187 324.69 320.942C322.886 316.749 322.962 310.684 324.822 305.151C332.856 298.695 340.747 292.183 348.485 285.796C369.474 268.473 389.344 252.074 407.932 240.228C420.96 231.925 431.841 226.91 440.599 225.276C447.954 223.904 453.052 224.983 457.275 228.137L457.227 228.196L458.363 229.211C464.562 234.749 473.967 234.118 479.37 227.801C484.674 221.6 484.15 212.225 478.265 206.644L478.306 206.597C477.805 206.158 477.3 205.731 476.792 205.318L476.376 204.947L476.358 204.97C463.933 195.107 449.397 193.117 435.097 195.785C420.71 198.469 405.974 205.901 391.809 214.929C371.571 227.826 349.391 246.13 327.779 263.966L327.751 263.99C319.386 270.892 311.107 277.724 303.058 284.146C294.753 290.772 260.117 318.207 253.092 322.891C242.995 329.622 236.967 330.476 233.828 330.178C231.012 329.911 228.11 328.491 224.643 324.484C220.98 320.252 217.66 314.222 214.241 306.81C213.541 305.291 212.791 303.603 212.012 301.829C211.649 301.003 211.281 300.159 210.907 299.304L210.791 299.037C210.348 298.023 209.899 296.995 209.448 295.967C215.661 290.952 221.619 286.141 227.314 281.542C247.422 265.305 264.259 251.71 277.547 241.138C286.979 233.634 294.5 227.752 300.063 223.579C300.681 223.116 301.269 222.678 301.828 222.265C302.228 222.025 302.62 221.765 303.004 221.484L306.757 218.738C307.751 218.064 308.31 217.724 308.529 217.591L308.539 217.585C308.608 217.542 308.64 217.523 308.639 217.521C308.638 217.519 308.61 217.531 308.559 217.554L308.513 217.575L308.424 217.614L308.393 217.542L310.105 216.29C316.835 211.365 318.3 201.916 313.375 195.185ZM112.139 327.608C112.139 327.608 112.16 327.606 112.199 327.605L112.16 327.607C112.146 327.608 112.139 327.608 112.139 327.608ZM120.767 338.79C120.754 338.794 120.781 338.684 120.887 338.449C120.833 338.669 120.78 338.786 120.767 338.79Z" fill="white"/>
<path d="M96.5001 321C88.9834 334.154 104.431 338.766 135 316L177 248.5L151.5 232L96.5001 321Z" fill="url(#paint0_linear)"/>
<path d="M209.5 296L185 315.5C194.126 337.175 207.5 352 215 354.863C215.353 355.098 215.687 355.311 216 355.5L233 330C222.6 328.4 214 306 209.5 296Z" fill="url(#paint1_linear)"/>
<path d="M325 305L295.5 328.5C302.3 352.5 327 358.833 338.5 359L345 329.5C320.5 329.5 322 315 325 305Z" fill="url(#paint2_linear)"/>
<defs>
<linearGradient id="paint0_linear" x1="132" y1="263" x2="95" y2="347" gradientUnits="userSpaceOnUse">
<stop offset="0.156312" stop-color="white" stop-opacity="0"/>
<stop offset="0.917851" stop-color="#9E9D9F"/>
</linearGradient>
<linearGradient id="paint1_linear" x1="178.5" y1="319.5" x2="209" y2="363.5" gradientUnits="userSpaceOnUse">
<stop offset="0.082395" stop-color="#BDBCBE"/>
<stop offset="0.796916" stop-color="white"/>
</linearGradient>
<linearGradient id="paint2_linear" x1="305.5" y1="322.5" x2="340.5" y2="353" gradientUnits="userSpaceOnUse">
<stop offset="0.140945" stop-color="#BDBCBE"/>
<stop offset="0.84103" stop-color="white" stop-opacity="0.39"/>
</linearGradient>
</defs>
</svg>
